<?xml version="1.0" encoding="UTF-8" standalone="no"?>
<!-- Created with Inkscape (http://www.inkscape.org/) -->

<svg
   version="1.1"
   id="svg2"
   xml:space="preserve"
   width="202.80586"
   height="228.75465"
   viewBox="0 0 202.80586 228.75465"
   sodipodi:docname="gem5_square.svg"
   inkscape:version="1.4.2 (ebf0e940d0, 2025-05-08)"
   xmlns:inkscape="http://www.inkscape.org/namespaces/inkscape"
   xmlns:sodipodi="http://sodipodi.sourceforge.net/DTD/sodipodi-0.dtd"
   xmlns="http://www.w3.org/2000/svg"
   xmlns:svg="http://www.w3.org/2000/svg"
   xmlns:rdf="http://www.w3.org/1999/02/22-rdf-syntax-ns#"
   xmlns:cc="http://creativecommons.org/ns#"
   xmlns:dc="http://purl.org/dc/elements/1.1/"><metadata
     id="metadata8"><rdf:RDF><cc:Work
         rdf:about=""><dc:format>image/svg+xml</dc:format><dc:type
           rdf:resource="http://purl.org/dc/dcmitype/StillImage" /></cc:Work></rdf:RDF></metadata><defs
     id="defs6"><clipPath
       clipPathUnits="userSpaceOnUse"
       id="clipPath100"><path
         d="m 118.978,669.019 c -12.695,-12.689 -12.695,-33.276 0,-45.976 v 0 c 9.836,-9.829 24.396,-12.008 36.361,-6.6 v 0 -11.524 h -35.19 l -9.581,-9.567 h 54.338 v 42.668 l -8.211,-8.21 h -31.027 l 39.241,39.244 c -6.343,6.321 -14.648,9.482 -22.951,9.483 v 0 c -8.319,0 -16.635,-3.172 -22.98,-9.518"
         id="path98"
         inkscape:connector-curvature="0" /></clipPath><radialGradient
       fx="0"
       fy="0"
       cx="0"
       cy="0"
       r="1"
       gradientUnits="userSpaceOnUse"
       gradientTransform="matrix(35.345718,0,0,-35.345718,137.18311,636.94434)"
       spreadMethod="pad"
       id="radialGradient110"><stop
         style="stop-opacity:1;stop-color:#939598"
         offset="0"
         id="stop106" /><stop
         style="stop-opacity:1;stop-color:#77787b"
         offset="1"
         id="stop108" /></radialGradient><clipPath
       clipPathUnits="userSpaceOnUse"
       id="clipPath120"><path
         d="m 164.957,711.713 v -42.615 l 8.164,8.174 h 31.028 l -39.227,-39.226 c 12.698,-12.693 33.27,-12.682 45.96,0 v 0 c 12.697,12.697 12.697,33.285 0,45.974 v 0 c -9.836,9.832 -24.399,12.019 -36.362,6.61 v 0 11.517 h 35.257 l 9.515,9.566 z"
         id="path118"
         inkscape:connector-curvature="0" /></clipPath><radialGradient
       fx="0"
       fy="0"
       cx="0"
       cy="0"
       r="1"
       gradientUnits="userSpaceOnUse"
       gradientTransform="matrix(35.351211,0,0,-35.351211,192.66357,670.12158)"
       spreadMethod="pad"
       id="radialGradient130"><stop
         style="stop-opacity:1;stop-color:#35aad1"
         offset="0"
         id="stop126" /><stop
         style="stop-opacity:1;stop-color:#008eb0"
         offset="1"
         id="stop128" /></radialGradient><clipPath
       clipPathUnits="userSpaceOnUse"
       id="clipPath1"><path
         d="m -194.2832,212.1963 h 612 v -792 h -612 z"
         id="path1"
         inkscape:connector-curvature="0"
         style="stroke-width:0.999998" /></clipPath><clipPath
       clipPathUnits="userSpaceOnUse"
       id="clipPath2"><path
         d="m -127.1885,219.9761 h 612 v -792 h -612 z"
         id="path2"
         inkscape:connector-curvature="0"
         style="stroke-width:0.999998" /></clipPath><clipPath
       clipPathUnits="userSpaceOnUse"
       id="clipPath3"><path
         d="m -219.1118,218.7778 h 612 v -792 h -612 z"
         id="path3"
         inkscape:connector-curvature="0"
         style="stroke-width:0.999998" /></clipPath><clipPath
       clipPathUnits="userSpaceOnUse"
       id="clipPath4"><path
         d="m -110.7539,236.605 h 612 v -792 h -612 z"
         id="path4"
         inkscape:connector-curvature="0"
         style="stroke-width:0.999998" /></clipPath></defs><sodipodi:namedview
     pagecolor="#ffffff"
     bordercolor="#666666"
     borderopacity="1"
     objecttolerance="10"
     gridtolerance="10"
     guidetolerance="10"
     inkscape:pageopacity="0"
     inkscape:pageshadow="2"
     inkscape:window-width="1908"
     inkscape:window-height="1156"
     id="namedview4"
     showgrid="false"
     inkscape:zoom="2.2886287"
     inkscape:cx="32.770716"
     inkscape:cy="244.0326"
     inkscape:window-x="20"
     inkscape:window-y="20"
     inkscape:window-maximized="0"
     inkscape:current-layer="g10"
     inkscape:showpageshadow="2"
     inkscape:pagecheckerboard="0"
     inkscape:deskcolor="#d1d1d1" /><g
     id="g10"
     inkscape:groupmode="layer"
     inkscape:label="gem5masterFile"
     transform="matrix(1.3333333,0,0,-1.3333333,-118.50486,948.95064)"><g
       id="g54"><g
         id="g78"
         transform="translate(110.7539,555.395)"
         clip-path="url(#clipPath4)"><path
           d="m 0,0 c -4.285,-3.08 -10.28,-2.699 -14.132,1.155 -4.285,4.287 -4.285,11.238 0,15.515 4.281,4.289 11.222,4.289 15.513,0 l 3.194,3.202 c -6.046,6.055 -15.859,6.055 -21.915,0 -6.047,-6.053 -6.047,-15.865 0,-21.918 4.695,-4.687 11.632,-5.728 17.34,-3.15 v -5.49 h -16.781 l -4.562,-4.562 H 4.561 V 5.107 c 0,0 -1.199,-1.964 -3.18,-3.952 C 0.95,0.725 0.48,0.347 0,0"
           style="fill:#77787b;fill-opacity:1;fill-rule:nonzero;stroke:none"
           id="path80"
           inkscape:connector-curvature="0" /></g><g
         id="g82"
         transform="translate(219.1118,573.2222)"
         clip-path="url(#clipPath3)"><path
           d="m 0,0 c 4.28,3.068 10.282,2.688 14.13,-1.157 4.291,-4.289 4.291,-11.235 0,-15.522 -4.279,-4.281 -11.228,-4.281 -15.514,0 l -3.199,-3.194 c 6.056,-6.056 15.869,-6.056 21.916,0 6.051,6.044 6.051,15.854 0,21.911 C 12.643,6.722 5.703,7.766 0,5.186 v 5.49 h 16.775 l 4.563,4.562 H -4.56 V 2.054 -5.121 c 0,0 1.188,1.979 3.176,3.964 C -0.949,-0.734 -0.486,-0.354 0,0"
           style="fill:#008eb0;fill-opacity:1;fill-rule:nonzero;stroke:none"
           id="path84"
           inkscape:connector-curvature="0" /></g><g
         id="g86"
         transform="translate(127.1885,572.0239)"
         clip-path="url(#clipPath2)"><path
           d="m 0,0 c 4.258,4.248 11.17,4.248 15.435,0 0.929,-0.932 1.633,-1.995 2.158,-3.138 H -2.174 C -1.648,-1.995 -0.931,-0.932 0,0 m 0,-15.438 c -2.133,2.135 -3.197,4.923 -3.197,7.719 h 26.406 c 0,1.546 -0.234,3.091 -0.698,4.581 -0.713,2.329 -1.992,4.528 -3.838,6.381 -6.052,6.055 -15.863,6.055 -21.921,0 -6.048,-6.063 -6.048,-15.873 0,-21.918 6.058,-6.055 15.869,-6.055 21.921,0 l -3.238,3.237 C 11.17,-19.699 4.258,-19.699 0,-15.438"
           style="fill:#77787b;fill-opacity:1;fill-rule:nonzero;stroke:none"
           id="path88"
           inkscape:connector-curvature="0" /></g><g
         id="g90"
         transform="translate(194.2832,579.8037)"
         clip-path="url(#clipPath1)"><path
           d="M 0,0 C -5.595,0 -10.479,-2.974 -13.211,-7.416 -15.932,-2.974 -20.82,0 -26.415,0 c -3.189,0 -6.148,-0.972 -8.614,-2.623 -1.86,-1.242 -3.419,-2.885 -4.584,-4.793 v -23.075 h 4.584 v 21.665 c 1.999,2.576 5.109,4.236 8.614,4.236 6.03,0 10.91,-4.879 10.91,-10.909 v -14.992 h 4.592 v 14.992 c 0,6.03 4.888,10.909 10.913,10.909 6.024,0 10.908,-4.879 10.908,-10.909 v -14.992 h 4.591 v 14.992 C 15.499,-6.936 8.557,0 0,0"
           style="fill:#008eb0;fill-opacity:1;fill-rule:nonzero;stroke:none"
           id="path92"
           inkscape:connector-curvature="0" /></g></g><g
       id="g94"><g
         id="g96"
         clip-path="url(#clipPath100)"><g
           id="g102"><g
             id="g104"><path
               d="m 118.978,669.019 c -12.695,-12.689 -12.695,-33.276 0,-45.976 v 0 c 9.836,-9.829 24.396,-12.008 36.361,-6.6 v 0 -11.524 h -35.19 l -9.581,-9.567 h 54.338 v 42.668 l -8.211,-8.21 h -31.027 l 39.241,39.244 c -6.343,6.321 -14.648,9.482 -22.951,9.483 v 0 c -8.319,0 -16.635,-3.172 -22.98,-9.518"
               style="fill:url(#radialGradient110);stroke:none"
               id="path112"
               inkscape:connector-curvature="0" /></g></g></g></g><g
       id="g114"><g
         id="g116"
         clip-path="url(#clipPath120)"><g
           id="g122"><g
             id="g124"><path
               d="m 164.957,711.713 v -42.615 l 8.164,8.174 h 31.028 l -39.227,-39.226 c 12.698,-12.693 33.27,-12.682 45.96,0 v 0 c 12.697,12.697 12.697,33.285 0,45.974 v 0 c -9.836,9.832 -24.399,12.019 -36.362,6.61 v 0 11.517 h 35.257 l 9.515,9.566 z"
               style="fill:url(#radialGradient130);stroke:none"
               id="path132"
               inkscape:connector-curvature="0" /></g></g></g></g></g></svg>
